<svg xmlns="http://www.w3.org/2000/svg" viewBox="0 0 541.67 346.43"><defs><style>.cls-1{fill:#42210b;opacity:0.5;}.cls-2{fill:#ffff20;}.cls-3{fill:#2020ff;}.cls-4{fill:#ff2020;}.cls-5{font-size:39px;font-family:Rockwell-ExtraBold, Rockwell Extra Bold;letter-spacing:0.02em;}.cls-6,.cls-8{fill:#fff;font-size:60px;}.cls-7{letter-spacing:0.02em;}.cls-8{letter-spacing:0.02em;}.cls-9{letter-spacing:-0.01em;}.cls-10{letter-spacing:0.02em;}</style></defs><title>Asset 6</title><g id="Layer_2" data-name="Layer 2"><g id="Layer_1-2" data-name="Layer 1"><rect class="cls-1" width="541.67" height="346.43"/><path class="cls-2" d="M516.68,111.44c.77.34.35-3.84.43-4.59C515.89,107.82,516.76,112.53,516.68,111.44Z"/><polygon class="cls-2" points="504.7 121.43 504.85 119.71 503.2 123.97 504.7 121.43"/><path class="cls-2" d="M493.16,121.85c1.41,7.08,4.13-1.35,6.29,1.09l.41,1.62.69-5.78C498.08,119.79,495,123.76,493.16,121.85Z"/><path class="cls-2" d="M486.29,106.71c.51,2.75-1.22,2.44,1.48.8-.15-.3-.2-.47-.29-.69A2.45,2.45,0,0,1,486.29,106.71Z"/><path class="cls-2" d="M487.48,106.82c1.21-.26-.91-2.29,0,0Z"/><path class="cls-2" d="M481.92,108.67l1.49-2.56c-.42-1.62-1.87-1.92-1.39-3.14C480.43,104.4,480.85,106,481.92,108.67Z"/><path class="cls-2" d="M480.65,113.94l.78-1.09C481.25,112.17,481,111.94,480.65,113.94Z"/><path class="cls-2" d="M483.09,110.56l-1.66,2.29c.29,1.14.43,3.45.77-.83C482.16,114.13,482.41,112.09,483.09,110.56Z"/><path class="cls-2" d="M484.14,111.6c1,1.51,2.18,2.43.69,5C487.85,115.45,487.17,110.46,484.14,111.6Z"/><path class="cls-2" d="M492.91,129.25l1.29,2,.92-2.45C494.66,130.05,492.73,127,492.91,129.25Z"/><path class="cls-2" d="M471.72,105.49c0,1.53.75,4,1,6l1.1-1.8C473.12,108.63,471.92,107.73,471.72,105.49Z"/><path class="cls-2" d="M472.69,111.44l-1.64,2.7C472.65,114.36,472.88,113.11,472.69,111.44Z"/><polygon class="cls-2" points="480.76 121.87 483.4 116.26 480.2 121.98 480.76 121.87"/><polygon class="cls-2" points="464.92 105.66 465.73 102.1 464.23 107.5 464.92 105.66"/><path class="cls-2" d="M460.45,106.52c.58-3-1.3-4.86-.62-6.69-1.19.59-2.1,3.15-2.91,5.45C457.85,104,458.94,104.22,460.45,106.52Z"/><path class="cls-2" d="M455.53,108.64a19.57,19.57,0,0,0,1.39-3.36A10.41,10.41,0,0,0,455.53,108.64Z"/><path class="cls-2" d="M468,113.55c-.18-.91-.58-3.3-1.63-4.26l.93,4.23Z"/><path class="cls-2" d="M467.32,113.65l0-.13c-.76-.06-1.29-.13-1.52-.16C466,113.38,466.44,113.48,467.32,113.65Z"/><path class="cls-2" d="M468.17,113.55H468C468.08,114,468.13,114.1,468.17,113.55Z"/><path class="cls-2" d="M475.93,118.25c-.92,2.44-2.95,5.11-.67,8.64C475.85,123.93,474.55,121.93,475.93,118.25Z"/><path class="cls-2" d="M469.32,118.84l1.93.88c-.09-1.12-.52-2.75-.07-4Z"/><polygon class="cls-2" points="468.48 120.25 469.32 118.84 468.61 118.52 468.48 120.25"/><path class="cls-2" d="M459,112.44a3.38,3.38,0,0,1-2.57,2.48,5.27,5.27,0,0,0,3.32,1.08C459.81,114.65,460.14,112.22,459,112.44Z"/><path class="cls-2" d="M463.06,113.39c-.05.11-.12.15-.16.26C463,114,463.12,114.11,463.06,113.39Z"/><path class="cls-2" d="M446.53,115.47l.21.77c0-.25,0-.48,0-.74Z"/><path class="cls-2" d="M460,116.79c.86.77,1.28-.3,1.67-1.63a3.71,3.71,0,0,1-1.89.84C459.71,116.61,459.72,117,460,116.79Z"/><path class="cls-2" d="M452.89,110.8a14.17,14.17,0,0,0,1.54,2.26C453.94,111.74,453,109.68,452.89,110.8Z"/><path class="cls-2" d="M462.56,112.48a1,1,0,0,1,.11-.2C462.35,111.39,462.41,111.83,462.56,112.48Z"/><path class="cls-2" d="M462.56,112.48a13.2,13.2,0,0,0-.93,2.68,5.07,5.07,0,0,0,1.27-1.51A8.3,8.3,0,0,1,462.56,112.48Z"/><path class="cls-2" d="M445.25,143c-.11-4,1.78-7.75,3.86-3.61,1.61-3.07-.35-16-2.37-23.18a8,8,0,0,1-1.57,5.76c.79,2.12,4.43,4.81,3.08,8.48-2.32,2.18-2.09-1.29-3.41-3.3,1.32,4.86-2.67,7.37-1.67,14.58l2-2.69C445.26,140.19,444.6,142,445.25,143Z"/><path class="cls-2" d="M450.3,116.43l.74-.54c-.92-.63-1.64-2.18-3-5.21a9,9,0,0,0-1.33,4.82l3.8.32Z"/><path class="cls-2" d="M454.47,115.67c-.34,4.34-2.07,6.28-.67,10.87,2.22-.43,1.36-3.69,2.59-5.63-3.56,1.28.9-2.46-1.86-4.74a4,4,0,0,1,1.89-1.25,11,11,0,0,1-2-1.86l.1.26h0v.06c.18.53.25.86.06.56,0,0-.05.07-.07.09,0,.59,0,1.12-.07,1.63-1.1-.83-.23-1.1.07-1.63,0-.22,0-.42,0-.65l0-.05L451,115.89C451.84,116.45,452.8,116.27,454.47,115.67Z"/><path class="cls-2" d="M473.81,136.25a3.39,3.39,0,0,1-.16-1C473.44,135.8,473.37,136.16,473.81,136.25Z"/><path class="cls-2" d="M472.2,133.73c.23-.61.36-2.34,1.23-1.95.81,1.25.1,2.06.22,3.48.45-1.17,1.64-3.18-.09-5.2l-.22.61c-1.53-1.41-3.69-6.68-3.46-7.28A68.31,68.31,0,0,0,472.2,133.73Z"/><path class="cls-2" d="M463.32,125.78l-2.89,2.28,1.74,3.63-.2-2.23C463.73,130.24,463.2,127.51,463.32,125.78Z"/><polygon class="cls-2" points="446.05 113.35 446.17 108.78 444.82 115.31 446.05 113.35"/><polygon class="cls-2" points="442.15 114.14 442.05 110.19 441.16 112.64 442.15 114.14"/><path class="cls-2" d="M228.27,185.7l-.69,1.23A3.32,3.32,0,0,0,228.27,185.7Z"/><path class="cls-2" d="M234.56,185.06l-.13-1.95C234.3,184.21,234.29,185,234.56,185.06Z"/><path class="cls-2" d="M345.82,122.4c-1.66-3.55-3.67-9.11-3.07-4.69l.82,4.27C344.4,121.12,345.14,121.53,345.82,122.4Z"/><path class="cls-2" d="M283.17,155.39l.53,1.26.36-4.22C283.79,153.32,283.48,154.33,283.17,155.39Z"/><path class="cls-2" d="M284.46,173.32l-2-2.57A9.5,9.5,0,0,0,284.46,173.32Z"/><path class="cls-2" d="M195.72,195.69l-.12,4.52C197.07,199.9,196,197.84,195.72,195.69Z"/><path class="cls-2" d="M402.05,118.59c-1.24-1.61-2.19-2.25-3-2.39C400.61,118.57,402,122.21,402.05,118.59Z"/><path class="cls-2" d="M224.15,139.77a4.39,4.39,0,0,0-.38,2.72A3.51,3.51,0,0,0,224.15,139.77Z"/><path class="cls-2" d="M395.84,116.47a11.64,11.64,0,0,0,.67,1c.76-.79,1.54-1.44,2.55-1.24C397.93,114.43,396.7,113.38,395.84,116.47Z"/><path class="cls-2" d="M88.79,235.57a4.44,4.44,0,0,1-.53-.27C88.59,235.8,88.7,235.75,88.79,235.57Z"/><path class="cls-2" d="M33.3,222.75a3.12,3.12,0,0,1,1-1.21C33.89,221.47,33.54,221.78,33.3,222.75Z"/><path class="cls-2" d="M426.22,113.29c.81-.33.1-.48,0,0Z"/><path class="cls-2" d="M431.43,130.15a6.29,6.29,0,0,0-.19,2.12A8.22,8.22,0,0,1,431.43,130.15Z"/><path class="cls-2" d="M389.79,144.05h-.07C390,144.86,390,144.7,389.79,144.05Z"/><path class="cls-2" d="M427.61,115.18a4.49,4.49,0,0,0-1.16-1.21A5.11,5.11,0,0,0,427.61,115.18Z"/><path class="cls-2" d="M427.3,113.14a6.36,6.36,0,0,0,.75.37C428.11,112.79,428,112.34,427.3,113.14Z"/><path class="cls-2" d="M425.07,113.61a1.84,1.84,0,0,1,1.38.36,1,1,0,0,1-.23-.68A7.65,7.65,0,0,1,425.07,113.61Z"/><path class="cls-2" d="M138.43,195.41a1.89,1.89,0,0,1-.3-.32C138,197.06,138.25,196.67,138.43,195.41Z"/><path class="cls-2" d="M329,169.42s0-.17.07-.21l-.14-.15Z"/><path class="cls-2" d="M326.39,172.94c.67-5.5,1.45-4.92,2.52-3.88l-2.3-12.33Z"/><path class="cls-2" d="M213.67,189.18l2.61,3.54c-1.4,6.72-3.46,4.81-.75,9.92-1.86-13.47,7.49-2.58,5.74-16l1.76,2.62c-.4-.07-.34.73-.74.66,3.55,6,.46-10,4.12-8.6a4.05,4.05,0,0,1,1.86,4.41l2.14-3.71c.8.16,1,2.52.15,2.37l3.85-1.65,0,.4A57,57,0,0,1,236,176c1.3,1.79-.31,1.5.19,3.13l1.77-3.56c1.39,3.36,0,7-1.58,6.71,4,13.14,1.37-3.64,6.94,3.58l-1.85,2c2.41,7.44,3.66,4.44,6.67,8.87-.89-2.4-6.39-11.32-4.45-15,.82.92,1.78,1.27,2.71-1.61.67,4.78,1.78,3.43,3.33,2.93l.76,6.36c1.46-2.07.88-5.28,1.51-8.27,2,.37,3.06,5.23,4.06,9.31,3.2.6-3.17-7.59.29-9.27,2.88,2.09,4.32-.74,6.88-4.94,2.07,1.95.2,3.92,1.08,5.65l.92-5.27c.4.07.48,1.64.52,2.43,1.08-2.14-.72-6.36,1.16-8.35-.33-7.08,5.63,9.66,7.22,1.4.87,1.72.18,3.92.69,6.36,2.9-5.66,2.57-4.17,4.63-11.56l3,3.85c-2.43-4.53-.78-10.46.72-15.36-.94-2.22-1.75-4.16-2.25-5.08l2.89-3.82c.53,1,.46,3.22.25,5.94.16-.55.31-1.1.41-1.6,1.47,2.21,1.31,5.95.9,9.59-.56-1.2-1.12-2.49-1.67-3.77a50.36,50.36,0,0,0,.05,12,3.52,3.52,0,0,1,.87-1.86,8.84,8.84,0,0,0,.07,2.65c.2.65.37-.79.7-2.48l1.62,7-.17-2.83,4.83,3.91c2.21-7.49,3.64-18.31,8.2-21.81-.61,5.34.73,8.51,1.38,14.68-2.09-6.36-3.45,3.21-6.13,2.19,1.4.53,1.46,3.5,1.25,4.55l3.8-6.45c.49,5.05,1.4,3.66,2.82,5.6-2.05-9.85,2.59-7,4.07-10.27.5,3.32.45,6.79-1.88,6.23,3.33,7.21,1.85-12.05,5-5.95-.54.14-.89-.34-.91,1.39.94-3.12,4.33-1.11,3.92,1.87l-.54.13c3.77.78,11.06-1.17,10.69-9.67.15,1.1.63,10.25.59,12l3.46-29.14c.2,7.32,4.22,24.38,1.65,28.82,1,.94,2.17,2,3.72-.73-.7-1-2.58-10.34-1.84-11.1,3.06,7.86,2,4.17,5.44,10.77-1.05-1.45-1.25-13,.19-12.74,0,1.73,1.28,11.23.89,12.47l2.33-11.55c-.66,2.1.82,9.5,1.92,12.59-.58-2.16,3-.1,3.84-1.29l-1.74-2.46c4.1,1.31,2.32-16.12,6.3-15.92-.25,2.36.23,14.35,2.35,15.56.34-5.82,1.35-28,4.43-32.72l1,3.21,2.32-4c-.87,8.79-3.79,27.36-5.62,34.69,1.72,2.45.79,3.83,3,3.31,1.07,3-.75,4.77-1.38,5l5.3,1.49c-.87-6.67,3.27-7.07,2.56-12.63l-4.91,7.45c-.87-6.66,1.41-19.29,5.18-18.45,1.17,2.58.41,12,.7,14.21.26-2.35,3-4.73,3.52-3.12L367.28,167c2.25,2.33,2.49-9.18,5.5-3,.88.35,3.28,8.38,3.07,4.41-2.05-7.51-4.45-31.12-4-36.95.35.48,5.11,6.92,6.4,10.61,1.91,5.88-.83,14.46.8,19.51a15.85,15.85,0,0,1,.71-4.92c1,1.49.13,5.7,2,4.71-.27-6.81,3.95.24.41-5.81,1.71-2.11,2.11,1.23,4.29.73-1.08-4.32.72-15.09,2.45-17.2a22.23,22.23,0,0,0,.94,5c3.92.28,6.24,3.22,9.85,3,.46,1.61,2.36,3.47,1.85,6.45.42-1.24.71-3.59,1.81-3.83,2.61,5.7-2.4,1.1-.21,8-.17-4,2.44-5.68,3.83-8.27-1-6.07-3.75-.89-5.13,1.7-.68-8.4,1.39-17.43,4.88-21.63,2.85-2.32,1.72,5.34,2.15,4.1,5.75,1.06,3.73-15,8.88-9.31,2.25,5.22.85,10.65,1.55,14.49-2.3,2.21-4-3.13-5.65-2.79l2.23,2.39c-.65,1.84-2.18,3.31-3.18,1.83,1.91,4.69,9.59.22,14.24,4.36.65-1.85,1.85-3.81,1.07-5.92l-1.32.84c-1.57-4.23,2.17-6.17.29-8.06,1.64-3.17,3.4-8.08,6.17-5.81l.9,6.09c-.17-1.79-1.95-3.53-2.55-1.62.9-2.79,4.54,8,5.2-.07l-2.11-4.12c1.66-3.2,3.54-9.85,6-8.07-1.44-6-.49.73-2.6-6.23,2,8.7-6,0-3.06,9.1-2.23-8.08-3.15-3.27-5.84-10.13.2,2,1,3.82-1,2.94a13.38,13.38,0,0,1-.3,1.81.62.62,0,0,1-.14-.14l.12.23c-.06.31-.07.38,0,.08a9.67,9.67,0,0,1,1.2,3c-.65,4.69-3.75,4.76-4.63,7.24-1.22-.88.32-2.35-.46-4.46l-1.31,3.7c-.47-4.46-3.6-7.22-1.06-10l-2.47,0c-1.62-2.41-3.69-3.26-4.77-1.29-1.23-.88-2.56,5.17-1.81,1.59l-3.64,3.05-.12-1.11c-3.84-.27-7.22,8-12.2.29-1.18,1.23-2.39,2.71-4.63,1.61l-.73-3.84c-1.53,1.47-5.25-3.45-5.62.64-2.65-10.27-8.16-1.6-11.21-3.19l.34,5.06c-2-.12-3.79,1.49-6.06,3.74l.55,4.45c-1.78,3.86-5.73-2.67-9-1.9.07-1.73,1-1.36,1.66-.38-5-9.72-7.75,8.1-12.08,1.13-.74,1.71-1.45,1.22-2.2.17.09,0,.15-.12.21-.26a.79.79,0,0,0-.38,0c-.48-.73-1-1.58-1.49-2.25a9.85,9.85,0,0,0,1.29,2.28,5.31,5.31,0,0,0-2.62,2l-.92-4.75c-.07.07-.14.07-.22.16-1.2-1.67-.59,2.35.31,5.9a11.34,11.34,0,0,0-1.08,3c-1.61-7.65-2.46,2.88-4.42-5.25-.29,4.08-4.9,3.55-4.57,12.08-.15-1.1-.51-1.6,0-1.73-1.25-.84-2.5-1.68-3.29.82l-1.12-6-1.66,8.45c-1.91-3.55-2.78-5.64-1.76-10.48-2.9,7.6-2.69,3-5,10.49l-.28-4c-1.1.27-2.3,5.74-3.33,2.57-3.31-7.2-12.42.33-19.62-5.87,2.59,11.43-3.59-4.83-2.79,4.17-.69-2.69-1.77-4.13-1-6.63-2.95,3.07-5.44-3.76-6.78,4.07-.71-2.7.21-4.09-.31-5.68-.2.63-.76,2.51-1.3.91s.21-2.35.58-3.6c-3.29.86-2.6,9.33-1.88,17.27-2.14-3.55-2.92-2.91-3.49,2.44-.91-2.52-2.22-5.1-.27-6.29-1.21-.24-7.59-2.9-6.91,3.46-.56-1.57-1.68-.27-1.89.5-2.66-.05-3-.59-5.45.33l.85.94c0,7.78-1.91,2-3.85,3.17l-.05-.79c-5.45-4.89-1.69,2.91-7.18-2.77l.88,4.73c.92,10.28-4.93-5.49-7.12-1.22l1.34,2.59c-1,3.7-6-13.36-7.68-14.42-.45-.85.32-1.5.68-2.21-4.73-5.5.34,6.29-2.36,8.14-1-3.29-.48-8.64-2.53-9-1.36-2.58-4.16,11.69-7.72,5.62.95,2.51,1.89,5,.82,7.14-1.92,1.21-7-9-7.68-.56a6.11,6.11,0,0,1-.67-2c-1.28,2.33-4.63,4.24-4.93,8.8-2-8.08-4.14-5.71-6.08-3.22s-3.68,5.15-4.85-2.41l-4.79,1.6L203,145.7c-3.32-.47-3.84,3.33-4.31,7.13-.9-.9-.62-2.4-.69-3.19-5.11-2.26-5.53-1.49-8,6.69l-1.31-4.81c-.26,1.51-2.28-.07-4.69-1.21s-5.23-1.84-6.91,1.49a6.08,6.08,0,0,1,0-2.28c-2,3.41-5.73.65-8.86-.55s-5.52-1-4.31,7.94l-2.25,5.16c4.61.26,1.29,7.77,3.77,10.22-1.36,1.44-5.62-4.18-3.82-5.6l.55.79c-1.59-9.3-6.15-1.88-7.71-8a27,27,0,0,1-6.51,1.28c-2.22.2-4.49.29-6.76.32s-4.55.07-6.77.27a28.77,28.77,0,0,0-6.43,1.17l3.42,6.52-2.87.64c-1.31-1.32-3-5-.9-5.45-2.51-3.49-2.09,4.51-1.56,6-2.43-.66-2.86-2.78-2.79-4.72s.62-3.67,0-3.53l-1.44,1.13.68.66c-.23,3.28.83,6.26-1.63,6.9-2-.74-2.48-3.86-3.17-3.87-.2-.49-.49-.63-1,.18l-3.74.88,3.68,4.73c-.4,3.22-3.29,1.12.87,6.4-3.14-4.11-6.68-3.49-9.73-2.13s-5.52,3.66-6.93,2.61c-.15,4.75-2.09,5.78-4.8,6.66,1.2.73,4.66,6.19,2.26,6.65-5.81-12.09-6.65-2.94-13.22-10.2,4.76,4.58-5.11,4.93,2,11.25-2.25.12-2.73-4.21-5.69-6.08-.67,3.47-3.31,4.16-6.33,4.62s-6.4.68-8.32,3.08c.93,1.5,3.25,3.16,3.72,6Q66.81,198.68,63,196c-.47,1.37,5,8.9-.25,5.14,1.1,1,2.75,2.59,2.46,3.49-7.11-.19-10.73,4.69-14.78,8.81s-8.63,7.51-18,4.68c3.31,1.74,2.72,2.63,1.89,3.45,1.1.17,2.68,3.42,4.27,5.2l-7.78-2.29c3.44,5.71-3.64,3.47-.08,8.72l.44-1.81c3.12,7.07,12.48,11.28,18.21,19-3.56-8,12.3,6.28,7.57-5.45,1.82,1,1.38,2.84,3.08,4.32-1.83-3.78-1.5-5.12,1.22-4.92l.45.95c3.83-4.27,8.23-2.55,14.81-4.14l-3.22-3.51c1.45-.3,2.57.72,3.78,1.3-3.07-6.68-3.26,1.92-6.9-5.24,3.63,3.31,5.53,1.91,7.49.72s4-2.22,7.65,1.89c1.68-1.12-3.69-4.1-2-5.23l2.17,2.1-1.8-3.41c1.45-.27,4.14,2.37,5.62,4.39-.43-.06-.33,1.1-.48,1.48,3.39,1.85,3.23-3.71,4.36-3.12L90.54,232c1.45-2.71,4.12-4.18,6.54-5.93a14.63,14.63,0,0,0,3.3-3,10.11,10.11,0,0,0,2-4.67l-1.51-1.69c.63-2.83,1.67-2.7,2.86-2.39s2.55.86,4-1l.13.54c-.35-2.36.13-3.93,1.31-4.31.32,2.81,4.28,3.46,4.42,6.69.78-2.95.84-4,.51-5.34a46.42,46.42,0,0,1-1.69-7.41l2.31,3c-.66-3.43-1.39-5.05.21-6.92-.22,3.67,3.77,4.42,3.84,9.09,3.83,2.62,4.37,0,5-1.94s1.13-3.48,4.5,1.5c-2.28-10.25-6-3.54-5.8-6-2.35-2.61-1.6-7.71.21-7.4.75-.21,2.67,2.5,4.8,5.11s4.45,5.09,6.09,4.3c-.36.09-.08.82-.43.91,2.24,1.91,1.12-4.32,4.26-1-1.39-6.12,2.16-.44-.42-7.92-.86,1-1.72,1.93-2.54,2.93,1-2.62-.52-11.93,4.14-8.89a17.77,17.77,0,0,1-.07,5.22c1.69,1.86,1.16-2.09,2.89-.18,2.46,7.54-3.29,3.09-3,9.44,2.1,2.79,1.54-6.71,3.63,1.67-1.25-5.36-.27-5.36.91-5.09s2.6.83,2.4-3.52l1.41,4.54c.12-.83.16-3.21.89-3.34l.77,6.24c.08-2.8,1.37-2,2.71-1s2.75,2.43,3.22.8c-3.72,1.35-2.62-5.17-5.33-7.92,2.85-7.62,6.57,10.94,11.05,7.13-.5.86-3.48-1.89-3-4.35a10.92,10.92,0,0,1,4.47,4.19c3.23-1.95-1.91-4.54-1.22-7.77,2.81,5.22,1.1-2.76,2.21-5l1.3,4.64c4.89,1.85-1.54-10,3.21-7.39l.11,6.88,1.5-2.17,1,5.41c1.08-4.47,2-3.65,4.44-2.65-1.29-3.18-1.81-8.57.05-9.16,1.94,2.48.34,4.63,2.83,3.33.08,3.08.32,6.92-1.85,2.87.25,1.56.12,3.08.37,4.62,2.11,2.89,3.54-.06,4.47-.33a1.79,1.79,0,0,1-1.26-.86c.75-2.46,1.52-5,2.33-7.39a6.75,6.75,0,0,1,.67,4.66c.66-.68.72-3,1.79-3.61.53,3.89,1.45,7.84.25,10l2.7-5c.59,1.62,2.81,4.19,2.63,5.7,2.43,1.85,3.44-8.44,6.73-6a3.57,3.57,0,0,1,.62-2.2c2.74.41,5.81,4.72,7.94-1.1l2.92,6.64c2.13-2-3.85-8.34-.28-11.62,2.48-2.7,2.05,5.73,3.36,7.49.81-3.74,2.18-11.24,5.7-6C215.25,189.46,214.4,188.54,213.67,189.18Zm29.93-7.53c-.46,1.08-1.21,4.34-2,1.58C241.48,177.67,242.37,180.21,243.6,181.65Zm45.24-17.6c-.25,1.63-1,.93-2-.79C287.32,162.8,288,162.9,288.84,164.05Zm128.52-46.18a1.5,1.5,0,0,0,0,.24C415.82,116.33,416.36,117,417.36,117.87Zm3,1.89a3.51,3.51,0,0,0,0-2c-.11,1.23-.74,1.37-1.48,1.08C419.14,120.05,419.57,120.9,420.33,119.76ZM118.17,168.52l1,.94C118.51,171.25,118.37,169.94,118.17,168.52Z"/><path class="cls-2" d="M284.33,171.24a17.47,17.47,0,0,1-.58-2.56A3.33,3.33,0,0,0,284.33,171.24Z"/><path class="cls-2" d="M195.75,194.85s-.07,0-.1,0a6.52,6.52,0,0,0,.07.88Z"/><path class="cls-2" d="M380.33,164a6,6,0,0,1-1.32-2.38C379.08,162.75,379.43,163.73,380.33,164Z"/><path class="cls-2" d="M434.7,110.55,433,111.92c.86-.29,1.24.74,1.73,1.48C434.6,112.27,434.14,110.67,434.7,110.55Z"/><path class="cls-2" d="M452.2,139.36c.22-.61.55-.1.77-.71l-.2-2.23A1.69,1.69,0,0,0,452.2,139.36Z"/><path class="cls-2" d="M437.42,126.44c.41,4,1.45,2.59,2.66,1.76a.31.31,0,0,1-.23,0C439.86,122.53,438.64,124.48,437.42,126.44Z"/><path class="cls-2" d="M440.36,128a1.29,1.29,0,0,1,1.16-.18C441.52,125.58,441,127.42,440.36,128Z"/><path class="cls-2" d="M423.71,116.81c.67,1,0-5.2.47-3.58C424.49,108,420.62,119.75,423.71,116.81Z"/><polygon class="cls-2" points="439.31 139.71 438.54 134.74 438.1 138.82 439.31 139.71"/><path class="cls-2" d="M429.16,136.69l2.1,1.26a2.35,2.35,0,0,1,.42-1.74C430.44,136.12,429,135.22,429.16,136.69Z"/><path class="cls-2" d="M431.68,136.21a1.35,1.35,0,0,0,1.56-.94A2.66,2.66,0,0,0,431.68,136.21Z"/><polygon class="cls-2" points="436.67 141.39 436.01 140.39 434.57 140.12 436.67 141.39"/><path class="cls-2" d="M407.54,137.3l-2.08,1.6c-.09,1.73.59,2.73,1.35,2C407.24,139.65,408,138.93,407.54,137.3Z"/><path class="cls-2" d="M415.17,150.49a13,13,0,0,1-1.24-3.73l.39,6.2Z"/><path class="cls-2" d="M408.93,152.41c-.08,1.73-2.77,5.17-.05,4.57C409,155.26,411,153.66,408.93,152.41Z"/><polygon class="cls-2" points="375.48 147.28 376.02 147.16 375.05 137.02 375.48 147.28"/><path class="cls-2" d="M349,174.27c2.8,2.17,0-6.32,2.6-3.52.37-2.46-2.13-2.29-1.72-4.42C348.53,169,347.58,167.67,349,174.27Z"/><path class="cls-2" d="M349.83,166.33a11.42,11.42,0,0,0,.64-1.61A5.19,5.19,0,0,0,349.83,166.33Z"/><polygon class="cls-2" points="25.07 222.29 22.43 221.68 25.41 223.68 25.07 222.29"/><path class="cls-2" d="M27.26,230.21l-4.35-4.83,2.87,5.22C25.89,230.14,26.12,229.24,27.26,230.21Z"/><path class="cls-2" d="M249.93,194l-.09-1.57c-.48-1.64-.88-1.71-1.68-1.86Z"/><polygon class="cls-2" points="227.15 192.28 227.54 192.36 225.98 186.65 227.15 192.28"/><path class="cls-2" d="M210.19,202.5c.77.13,1.4-1.31,2.17-1.18C211,202.63,208.79,195.32,210.19,202.5Z"/><path class="cls-3" d="M517.68,158.16c.77.34.35-3.84.43-4.6C516.89,154.54,517.76,159.24,517.68,158.16Z"/><polygon class="cls-3" points="505.7 168.15 505.85 166.43 504.2 170.69 505.7 168.15"/><path class="cls-3" d="M494.16,168.56c1.41,7.08,4.13-1.34,6.29,1.1l.41,1.62.69-5.78C499.08,166.5,496,170.48,494.16,168.56Z"/><path class="cls-3" d="M487.29,153.43c.51,2.75-1.22,2.44,1.48.79a6.58,6.58,0,0,1-.29-.69A2.54,2.54,0,0,1,487.29,153.43Z"/><path class="cls-3" d="M488.48,153.53c1.21-.25-.91-2.29,0,0Z"/><path class="cls-3" d="M482.92,155.38l1.49-2.55c-.42-1.62-1.87-1.93-1.39-3.15C481.43,151.12,481.85,152.73,482.92,155.38Z"/><path class="cls-3" d="M481.65,160.65l.78-1.08C482.25,158.89,482,158.65,481.65,160.65Z"/><path class="cls-3" d="M484.09,157.27l-1.66,2.3c.29,1.13.43,3.45.77-.84C483.16,160.85,483.41,158.8,484.09,157.27Z"/><path class="cls-3" d="M485.14,158.31c1,1.51,2.18,2.44.69,5C488.85,162.16,488.17,157.18,485.14,158.31Z"/><path class="cls-3" d="M493.91,176l1.29,2,.92-2.44C495.66,176.77,493.73,173.73,493.91,176Z"/><path class="cls-3" d="M472.72,152.21c0,1.52.75,4,1,5.95l1.1-1.81C474.12,155.34,472.92,154.45,472.72,152.21Z"/><path class="cls-3" d="M473.69,158.16l-1.64,2.69C473.65,161.07,473.88,159.82,473.69,158.16Z"/><polygon class="cls-3" points="481.76 168.58 484.4 162.98 481.2 168.69 481.76 168.58"/><polygon class="cls-3" points="465.92 152.37 466.73 148.81 465.23 154.21 465.92 152.37"/><path class="cls-3" d="M461.45,153.23c.58-2.95-1.3-4.85-.62-6.69-1.19.59-2.1,3.15-2.91,5.45C458.85,150.68,459.94,150.94,461.45,153.23Z"/><path class="cls-3" d="M456.53,155.35a19.23,19.23,0,0,0,1.39-3.36A10.41,10.41,0,0,0,456.53,155.35Z"/><path class="cls-3" d="M469,160.26c-.18-.91-.58-3.29-1.63-4.26l.93,4.23Z"/><path class="cls-3" d="M468.32,160.37l0-.14c-.76,0-1.29-.12-1.52-.16Z"/><path class="cls-3" d="M469.17,160.27H469C469.08,160.68,469.13,160.81,469.17,160.27Z"/><path class="cls-3" d="M476.93,165c-.92,2.44-2.95,5.11-.67,8.64C476.85,170.65,475.55,168.64,476.93,165Z"/><path class="cls-3" d="M470.32,165.56l1.93.87c-.09-1.12-.52-2.75-.07-4Z"/><polygon class="cls-3" points="469.48 166.96 470.32 165.56 469.61 165.24 469.48 166.96"/><path class="cls-3" d="M460,159.16a3.39,3.39,0,0,1-2.57,2.47,5.21,5.21,0,0,0,3.32,1.08C460.81,161.37,461.14,158.93,460,159.16Z"/><path class="cls-3" d="M464.06,160.11c-.05.1-.12.15-.16.25C464,160.72,464.12,160.82,464.06,160.11Z"/><path class="cls-3" d="M447.53,162.19l.21.76c0-.24,0-.47,0-.74Z"/><path class="cls-3" d="M461,163.5c.86.78,1.28-.29,1.67-1.63a3.63,3.63,0,0,1-1.89.84C460.71,163.33,460.72,163.73,461,163.5Z"/><path class="cls-3" d="M453.89,157.51a14.17,14.17,0,0,0,1.54,2.26C454.94,158.45,454,156.39,453.89,157.51Z"/><path class="cls-3" d="M463.56,159.19a.86.86,0,0,1,.11-.19C463.35,158.1,463.41,158.54,463.56,159.19Z"/><path class="cls-3" d="M463.56,159.19a13.65,13.65,0,0,0-.93,2.68,4.94,4.94,0,0,0,1.27-1.51A8.3,8.3,0,0,1,463.56,159.19Z"/><path class="cls-3" d="M446.25,189.75c-.11-4,1.78-7.75,3.86-3.62,1.61-3.07-.35-16-2.37-23.18a8,8,0,0,1-1.57,5.77c.79,2.11,4.43,4.8,3.08,8.47-2.32,2.18-2.09-1.28-3.41-3.29,1.32,4.85-2.67,7.37-1.67,14.57l2-2.69C446.26,186.91,445.6,188.76,446.25,189.75Z"/><path class="cls-3" d="M451.3,163.14l.74-.53c-.92-.64-1.64-2.18-3-5.21a9,9,0,0,0-1.33,4.81l3.8.33Z"/><path class="cls-3" d="M455.47,162.39c-.34,4.33-2.07,6.28-.67,10.86,2.22-.43,1.36-3.68,2.59-5.63-3.56,1.28.9-2.46-1.86-4.74a4.07,4.07,0,0,1,1.89-1.25,10.69,10.69,0,0,1-2-1.86l.1.27h0v.05c.18.54.25.86.06.57,0,0-.05.06-.07.09,0,.59,0,1.12-.07,1.62-1.1-.82-.23-1.1.07-1.62,0-.22,0-.42,0-.66l0,0L452,162.61C452.84,163.16,453.8,163,455.47,162.39Z"/><path class="cls-3" d="M474.81,183a3.39,3.39,0,0,1-.16-1C474.44,182.51,474.37,182.87,474.81,183Z"/><path class="cls-3" d="M473.2,180.44c.23-.61.36-2.34,1.23-1.94.81,1.25.1,2.06.22,3.47.45-1.17,1.64-3.18-.09-5.19l-.22.6c-1.53-1.4-3.69-6.67-3.46-7.28A68,68,0,0,0,473.2,180.44Z"/><path class="cls-3" d="M464.32,172.49l-2.89,2.29,1.74,3.63-.2-2.23C464.73,177,464.2,174.22,464.32,172.49Z"/><polygon class="cls-3" points="447.05 160.07 447.17 155.5 445.82 162.02 447.05 160.07"/><polygon class="cls-3" points="443.15 160.85 443.05 156.9 442.16 159.35 443.15 160.85"/><path class="cls-3" d="M229.27,232.41l-.69,1.23A3.32,3.32,0,0,0,229.27,232.41Z"/><path class="cls-3" d="M235.56,231.78l-.13-1.95C235.3,230.93,235.29,231.73,235.56,231.78Z"/><path class="cls-3" d="M346.82,169.12c-1.66-3.55-3.67-9.12-3.07-4.7l.82,4.28C345.4,167.83,346.14,168.24,346.82,169.12Z"/><path class="cls-3" d="M284.17,202.11l.53,1.25c.13-1.51.25-2.94.36-4.22C284.79,200,284.48,201.05,284.17,202.11Z"/><path class="cls-3" d="M285.46,220l-2-2.57A9.82,9.82,0,0,0,285.46,220Z"/><path class="cls-3" d="M196.72,242.4l-.12,4.52C198.07,246.61,197,244.55,196.72,242.4Z"/><path class="cls-3" d="M403.05,165.3c-1.24-1.6-2.19-2.24-3-2.39C401.61,165.29,403,168.93,403.05,165.3Z"/><path class="cls-3" d="M225.15,186.49a4.37,4.37,0,0,0-.38,2.72A3.52,3.52,0,0,0,225.15,186.49Z"/><path class="cls-3" d="M396.84,163.18a11.64,11.64,0,0,0,.67,1c.76-.79,1.54-1.44,2.55-1.24C398.93,161.15,397.7,160.09,396.84,163.18Z"/><path class="cls-3" d="M89.79,282.28a4.28,4.28,0,0,1-.53-.26C89.59,282.51,89.7,282.47,89.79,282.28Z"/><path class="cls-3" d="M34.3,269.47c.11-.45.58-.82,1-1.22C34.89,268.19,34.54,268.5,34.3,269.47Z"/><path class="cls-3" d="M427.22,160c.81-.34.1-.49,0,0Z"/><path class="cls-3" d="M432.43,176.86a6.38,6.38,0,0,0-.19,2.13A8.37,8.37,0,0,1,432.43,176.86Z"/><path class="cls-3" d="M390.79,190.76h-.07C391,191.58,391,191.42,390.79,190.76Z"/><path class="cls-3" d="M428.61,161.89a4.65,4.65,0,0,0-1.16-1.21A5.11,5.11,0,0,0,428.61,161.89Z"/><path class="cls-3" d="M428.3,159.86c.3.17.53.27.75.37C429.11,159.5,429,159.05,428.3,159.86Z"/><path class="cls-3" d="M426.07,160.33a1.79,1.79,0,0,1,1.38.35,1,1,0,0,1-.23-.67A9.12,9.12,0,0,1,426.07,160.33Z"/><path class="cls-3" d="M139.43,242.13a3.19,3.19,0,0,1-.3-.32C139,243.77,139.25,243.38,139.43,242.13Z"/><path class="cls-3" d="M330,216.13s0-.16.07-.21l-.14-.15Z"/><path class="cls-3" d="M327.39,219.65c.67-5.5,1.45-4.91,2.52-3.88l-2.3-12.33Z"/><path class="cls-3" d="M214.67,235.89l2.61,3.54c-1.4,6.72-3.46,4.81-.75,9.92-1.86-13.46,7.49-2.58,5.74-16L224,236c-.4-.07-.34.72-.74.65,3.55,6,.46-10,4.12-8.59a4,4,0,0,1,1.86,4.4l2.14-3.7c.8.15,1,2.51.15,2.36l3.85-1.64,0,.4a57.19,57.19,0,0,1,1.55-7.11c1.3,1.79-.31,1.5.19,3.13l1.77-3.56c1.39,3.37,0,7-1.58,6.71,4,13.14,1.37-3.63,6.94,3.59l-1.85,2c2.41,7.44,3.66,4.45,6.67,8.88-.89-2.41-6.39-11.33-4.45-15,.82.92,1.78,1.28,2.71-1.61.67,4.79,1.78,3.43,3.33,2.94l.76,6.35c1.46-2.07.88-5.28,1.51-8.26,2,.37,3.06,5.22,4.06,9.3,3.2.6-3.17-7.59.29-9.27,2.88,2.09,4.32-.74,6.88-4.94,2.07,2,.2,3.92,1.08,5.65l.92-5.27c.4.07.48,1.64.52,2.44,1.08-2.14-.72-6.36,1.16-8.36-.33-7.07,5.63,9.66,7.22,1.4.87,1.72.18,3.93.69,6.36,2.9-5.66,2.57-4.17,4.63-11.55l3,3.85c-2.43-4.53-.78-10.47.72-15.36-.94-2.22-1.75-4.17-2.25-5.08l2.89-3.82c.53,1,.46,3.22.25,5.93.16-.55.31-1.09.41-1.59,1.47,2.2,1.31,5.94.9,9.59-.56-1.21-1.12-2.49-1.67-3.78a50.36,50.36,0,0,0,.05,12,3.52,3.52,0,0,1,.87-1.85,8.87,8.87,0,0,0,.07,2.65c.2.65.37-.8.7-2.49l1.62,7-.17-2.83,4.83,3.92c2.21-7.49,3.64-18.31,8.2-21.82-.61,5.34.73,8.52,1.38,14.68-2.09-6.36-3.45,3.21-6.13,2.2,1.4.52,1.46,3.5,1.25,4.55l3.8-6.46c.49,5,1.4,3.66,2.82,5.6-2.05-9.85,2.59-7,4.07-10.27.5,3.33.45,6.79-1.88,6.23,3.33,7.22,1.85-12,5-6-.54.14-.89-.33-.91,1.39.94-3.11,4.33-1.11,3.92,1.88l-.54.13c3.77.77,11.06-1.17,10.69-9.67.15,1.09.63,10.24.59,12l3.46-29.14c.2,7.33,4.22,24.39,1.65,28.82,1,.94,2.17,2,3.72-.72-.7-1-2.58-10.35-1.84-11.1,3.06,7.85,2,4.16,5.44,10.77-1.05-1.46-1.25-13,.19-12.74,0,1.72,1.28,11.22.89,12.47l2.33-11.55c-.66,2.1.82,9.49,1.92,12.59-.58-2.16,3-.1,3.84-1.3l-1.74-2.45c4.1,1.3,2.32-16.12,6.3-15.92-.25,2.35.23,14.34,2.35,15.55.34-5.81,1.35-28,4.43-32.72l1,3.22,2.32-4c-.87,8.78-3.79,27.36-5.62,34.68,1.72,2.45.79,3.83,3,3.31,1.07,3-.75,4.78-1.38,5l5.3,1.5c-.87-6.68,3.27-7.08,2.56-12.64l-4.91,7.46c-.87-6.66,1.41-19.29,5.18-18.46,1.17,2.59.41,12,.7,14.21.26-2.35,3-4.72,3.52-3.12l-1.21,3.72c2.25,2.33,2.49-9.18,5.5-3,.88.35,3.28,8.39,3.07,4.42-2.05-7.52-4.45-31.13-4-36.95.35.48,5.11,6.91,6.4,10.61,1.91,5.87-.83,14.46.8,19.5a15.78,15.78,0,0,1,.71-4.91c1,1.49.13,5.7,2,4.71-.27-6.81,3.95.24.41-5.82,1.71-2.1,2.11,1.23,4.29.74-1.08-4.33.72-15.1,2.45-17.21a22.12,22.12,0,0,0,.94,5c3.92.28,6.24,3.22,9.85,3,.46,1.62,2.36,3.47,1.85,6.46.42-1.25.71-3.59,1.81-3.84,2.61,5.7-2.4,1.11-.21,8-.17-3.95,2.44-5.68,3.83-8.27-1-6.06-3.75-.88-5.13,1.71-.68-8.41,1.39-17.44,4.88-21.63,2.85-2.33,1.72,5.33,2.15,4.1,5.75,1.05,3.73-15,8.88-9.31,2.25,5.22.85,10.65,1.55,14.49-2.3,2.21-4-3.13-5.65-2.8l2.23,2.39c-.65,1.85-2.18,3.31-3.18,1.83,1.91,4.7,9.59.23,14.24,4.36.65-1.85,1.85-3.81,1.07-5.92l-1.32.85c-1.57-4.23,2.17-6.17.29-8.07,1.64-3.16,3.4-8.08,6.17-5.8l.9,6.08c-.17-1.78-1.95-3.53-2.55-1.62.9-2.79,4.54,8,5.2-.07l-2.11-4.12c1.66-3.19,3.54-9.84,6-8.06-1.44-6-.49.72-2.6-6.24,2,8.7-6,0-3.06,9.11-2.23-8.09-3.15-3.28-5.84-10.13.2,2,1,3.81-1,2.94a13.65,13.65,0,0,1-.3,1.81.66.66,0,0,1-.14-.15,2.42,2.42,0,0,0,.12.23c-.06.31-.07.38,0,.08a9.73,9.73,0,0,1,1.2,3c-.65,4.69-3.75,4.76-4.63,7.24-1.22-.88.32-2.36-.46-4.46l-1.31,3.7c-.47-4.47-3.6-7.22-1.06-10.05l-2.47,0c-1.62-2.4-3.69-3.26-4.77-1.29-1.23-.88-2.56,5.17-1.81,1.59L409.83,165l-.12-1.11c-3.84-.28-7.22,8-12.2.28-1.18,1.23-2.39,2.72-4.63,1.62l-.73-3.84c-1.53,1.46-5.25-3.46-5.62.63-2.65-10.27-8.16-1.59-11.21-3.19l.34,5.06c-2-.11-3.79,1.49-6.06,3.75l.55,4.45c-1.78,3.86-5.73-2.68-9-1.91.07-1.72,1-1.36,1.66-.38-5-9.72-7.75,8.1-12.08,1.13-.74,1.72-1.45,1.23-2.2.17.09,0,.15-.11.21-.26a.79.79,0,0,0-.38,0c-.48-.73-1-1.58-1.49-2.24a10.07,10.07,0,0,0,1.29,2.28,5.28,5.28,0,0,0-2.62,2l-.92-4.74c-.07.07-.14.06-.22.15-1.2-1.66-.59,2.35.31,5.91a11.09,11.09,0,0,0-1.08,3c-1.61-7.65-2.46,2.87-4.42-5.26-.29,4.08-4.9,3.55-4.57,12.08-.15-1.1-.51-1.59,0-1.72-1.25-.84-2.5-1.69-3.29.81l-1.12-6-1.66,8.45c-1.91-3.54-2.78-5.63-1.76-10.48-2.9,7.6-2.69,3-5,10.5l-.28-4c-1.1.26-2.3,5.74-3.33,2.56-3.31-7.2-12.42.34-19.62-5.87,2.59,11.43-3.59-4.83-2.79,4.18-.69-2.69-1.77-4.14-1-6.63-2.95,3.07-5.44-3.77-6.78,4.07-.71-2.71.21-4.09-.31-5.69-.2.63-.76,2.51-1.3.91s.21-2.35.58-3.6c-3.29.86-2.6,9.33-1.88,17.27-2.14-3.54-2.92-2.91-3.49,2.44-.91-2.52-2.22-5.1-.27-6.29-1.21-.23-7.59-2.9-6.91,3.46-.56-1.57-1.68-.27-1.89.51-2.66-.06-3-.6-5.45.33l.85.94c0,7.78-1.91,2-3.85,3.16l-.05-.78c-5.45-4.9-1.69,2.91-7.18-2.77l.88,4.72c.92,10.29-4.93-5.48-7.12-1.21l1.34,2.59c-1,3.69-6-13.37-7.68-14.43-.45-.84.32-1.49.68-2.21-4.73-5.49.34,6.29-2.36,8.14-1-3.28-.48-8.64-2.53-9-1.36-2.57-4.16,11.69-7.72,5.63.95,2.5,1.89,5,.82,7.13-1.92,1.21-7-9-7.68-.56a6.14,6.14,0,0,1-.67-2c-1.28,2.33-4.63,4.23-4.93,8.8-2-8.08-4.14-5.72-6.08-3.23s-3.68,5.15-4.85-2.4L204.12,194l-.12-1.56c-3.32-.46-3.84,3.34-4.31,7.14-.9-.9-.62-2.4-.69-3.2-5.11-2.26-5.53-1.48-8,6.69l-1.31-4.8c-.26,1.5-2.28-.08-4.69-1.22s-5.23-1.84-6.91,1.5a6.13,6.13,0,0,1,0-2.29c-2,3.42-5.73.66-8.86-.54s-5.52-1.05-4.31,7.93l-2.25,5.17c4.61.25,1.29,7.76,3.77,10.21-1.36,1.44-5.62-4.17-3.82-5.6l.55.8c-1.59-9.3-6.15-1.88-7.71-8a27,27,0,0,1-6.51,1.28c-2.22.2-4.49.29-6.76.31s-4.55.08-6.77.28a28.21,28.21,0,0,0-6.43,1.16l3.42,6.53-2.87.64c-1.31-1.32-3-5-.9-5.46-2.51-3.48-2.09,4.51-1.56,6-2.43-.66-2.86-2.78-2.79-4.71s.62-3.68,0-3.53l-1.44,1.12.68.66c-.23,3.28.83,6.26-1.63,6.91-2-.75-2.48-3.86-3.17-3.87-.2-.5-.49-.63-1,.17l-3.74.89,3.68,4.72c-.4,3.23-3.29,1.12.87,6.41-3.14-4.12-6.68-3.5-9.73-2.13s-5.52,3.65-6.93,2.6c-.15,4.75-2.09,5.79-4.8,6.66,1.2.73,4.66,6.2,2.26,6.66-5.81-12.1-6.65-2.95-13.22-10.21,4.76,4.59-5.11,4.94,2,11.25-2.25.12-2.73-4.21-5.69-6.08-.67,3.47-3.31,4.16-6.33,4.62s-6.4.69-8.32,3.08c.93,1.51,3.25,3.16,3.72,6q-3.75-2.74-7.56-5.45c-.47,1.38,5,8.9-.25,5.14,1.1,1,2.75,2.6,2.46,3.5-7.11-.2-10.73,4.69-14.78,8.8s-8.63,7.52-18,4.69c3.31,1.73,2.72,2.62,1.89,3.44,1.1.17,2.68,3.42,4.27,5.2l-7.78-2.28c3.44,5.71-3.64,3.46-.08,8.72l.44-1.82c3.12,7.07,12.48,11.28,18.21,19-3.56-8,12.3,6.28,7.57-5.45,1.82,1.06,1.38,2.85,3.08,4.33-1.83-3.79-1.5-5.13,1.22-4.92l.45.94c3.83-4.26,8.23-2.54,14.81-4.14l-3.22-3.51c1.45-.3,2.57.72,3.78,1.3-3.07-6.68-3.26,1.93-6.9-5.24,3.63,3.31,5.53,1.92,7.49.72s4-2.21,7.65,1.9c1.68-1.13-3.69-4.1-2-5.24l2.17,2.1-1.8-3.41c1.45-.26,4.14,2.37,5.62,4.4-.43-.06-.33,1.1-.48,1.47,3.39,1.85,3.23-3.71,4.36-3.12l-2.61-.4c1.45-2.72,4.12-4.18,6.54-5.94a14.82,14.82,0,0,0,3.3-3,10.15,10.15,0,0,0,2-4.68l-1.51-1.68c.63-2.83,1.67-2.71,2.86-2.39s2.55.85,4-1.05l.13.54c-.35-2.36.13-3.94,1.31-4.32.32,2.82,4.28,3.46,4.42,6.69.78-2.94.84-4,.51-5.33a46.65,46.65,0,0,1-1.69-7.42l2.31,3c-.66-3.43-1.39-5,.21-6.92-.22,3.67,3.77,4.43,3.84,9.1,3.83,2.61,4.37,0,5-2s1.13-3.48,4.5,1.5c-2.28-10.24-6-3.53-5.8-6-2.35-2.61-1.6-7.7.21-7.4.75-.21,2.67,2.51,4.8,5.11s4.45,5.09,6.09,4.3c-.36.1-.08.83-.43.92,2.24,1.91,1.12-4.33,4.26-1-1.39-6.11,2.16-.44-.42-7.92-.86,1-1.72,1.94-2.54,2.94,1-2.63-.52-11.93,4.14-8.9a17.83,17.83,0,0,1-.07,5.23c1.69,1.86,1.16-2.09,2.89-.19,2.46,7.54-3.29,3.09-3,9.45,2.1,2.78,1.54-6.72,3.63,1.66-1.25-5.35-.27-5.35.91-5.09s2.6.84,2.4-3.51l1.41,4.53c.12-.83.16-3.21.89-3.33l.77,6.24c.08-2.8,1.37-2,2.71-1s2.75,2.43,3.22.79c-3.72,1.35-2.62-5.16-5.33-7.92,2.85-7.61,6.57,10.94,11.05,7.13-.5.86-3.48-1.89-3-4.34a10.78,10.78,0,0,1,4.47,4.19c3.23-1.95-1.91-4.54-1.22-7.77,2.81,5.21,1.1-2.76,2.21-5l1.3,4.65c4.89,1.84-1.54-10,3.21-7.39l.11,6.88,1.5-2.18,1,5.42c1.08-4.47,2-3.66,4.44-2.66-1.29-3.18-1.81-8.56.05-9.16,1.94,2.49.34,4.63,2.83,3.34.08,3.08.32,6.91-1.85,2.87.25,1.55.12,3.07.37,4.61,2.11,2.89,3.54-.06,4.47-.33a1.78,1.78,0,0,1-1.26-.85c.75-2.47,1.52-5,2.33-7.4a6.77,6.77,0,0,1,.67,4.67c.66-.68.72-3,1.79-3.62.53,3.9,1.45,7.84.25,10l2.7-5c.59,1.61,2.81,4.19,2.63,5.7,2.43,1.85,3.44-8.44,6.73-6a3.53,3.53,0,0,1,.62-2.2c2.74.4,5.81,4.72,7.94-1.1l2.92,6.63c2.13-2-3.85-8.33-.28-11.62,2.48-2.7,2.05,5.73,3.36,7.49.81-3.73,2.18-11.24,5.7-6C216.25,236.17,215.4,235.25,214.67,235.89Zm29.93-7.53c-.46,1.09-1.21,4.35-2,1.59C242.48,224.38,243.37,226.93,244.6,228.36Zm45.24-17.59c-.25,1.63-1,.93-2-.79C288.32,209.52,289,209.62,289.84,210.77Zm128.52-46.19a1.45,1.45,0,0,0,0,.25C416.82,163.05,417.36,163.76,418.36,164.58Zm3,1.89a3.47,3.47,0,0,0,0-2c-.11,1.23-.74,1.36-1.48,1.07C420.14,166.76,420.57,167.61,421.33,166.47ZM119.17,215.23l1,.94C119.51,218,119.37,216.66,119.17,215.23Z"/><path class="cls-3" d="M285.33,218a17.61,17.61,0,0,1-.58-2.57A3.35,3.35,0,0,0,285.33,218Z"/><path class="cls-3" d="M196.75,241.57s-.07,0-.1,0a6.25,6.25,0,0,0,.07.87Z"/><path class="cls-3" d="M381.33,210.68a6,6,0,0,1-1.32-2.39C380.08,209.47,380.43,210.44,381.33,210.68Z"/><path class="cls-3" d="M435.7,157.27,434,158.64c.86-.3,1.24.73,1.73,1.47C435.6,159,435.14,157.38,435.7,157.27Z"/><path class="cls-3" d="M453.2,186.08c.22-.61.55-.1.77-.71l-.2-2.24A1.7,1.7,0,0,0,453.2,186.08Z"/><path class="cls-3" d="M438.42,173.15c.41,4,1.45,2.59,2.66,1.76-.08,0-.15.06-.23,0C440.86,169.24,439.64,171.2,438.42,173.15Z"/><path class="cls-3" d="M441.36,174.75a1.28,1.28,0,0,1,1.16-.17C442.52,172.3,442,174.13,441.36,174.75Z"/><path class="cls-3" d="M424.71,163.53c.67,1,0-5.21.47-3.59C425.49,154.75,421.62,166.47,424.71,163.53Z"/><polygon class="cls-3" points="440.31 186.43 439.54 181.46 439.1 185.53 440.31 186.43"/><path class="cls-3" d="M430.16,183.4l2.1,1.26a2.32,2.32,0,0,1,.42-1.73C431.44,182.83,430,181.93,430.16,183.4Z"/><path class="cls-3" d="M432.68,182.93a1.35,1.35,0,0,0,1.56-.94A2.61,2.61,0,0,0,432.68,182.93Z"/><polygon class="cls-3" points="437.67 188.11 437.01 187.1 435.57 186.83 437.67 188.11"/><path class="cls-3" d="M408.54,184l-2.08,1.6c-.09,1.72.59,2.73,1.35,2C408.24,186.37,409,185.64,408.54,184Z"/><path class="cls-3" d="M416.17,197.2a12.91,12.91,0,0,1-1.24-3.72l.39,6.19Z"/><path class="cls-3" d="M409.93,199.12c-.08,1.74-2.77,5.18-.05,4.57C410,202,412,200.37,409.93,199.12Z"/><polygon class="cls-3" points="376.48 194 377.02 193.87 376.05 183.73 376.48 194"/><path class="cls-3" d="M350,221c2.8,2.17,0-6.32,2.6-3.51.37-2.46-2.13-2.29-1.72-4.42C349.53,215.73,348.58,214.39,350,221Z"/><path class="cls-3" d="M350.83,213.05a12.14,12.14,0,0,0,.64-1.62A5.23,5.23,0,0,0,350.83,213.05Z"/><polygon class="cls-3" points="26.07 269.01 23.43 268.39 26.41 270.4 26.07 269.01"/><path class="cls-3" d="M28.26,276.92l-4.35-4.83,2.87,5.22C26.89,276.85,27.12,276,28.26,276.92Z"/><path class="cls-3" d="M250.93,240.68l-.09-1.57c-.48-1.63-.88-1.7-1.68-1.86Z"/><polygon class="cls-3" points="228.15 238.99 228.54 239.07 226.98 233.37 228.15 238.99"/><path class="cls-3" d="M211.19,249.22c.77.12,1.4-1.32,2.17-1.19C212,249.34,209.79,242,211.19,249.22Z"/><path class="cls-4" d="M518.68,206c.77.34.35-3.84.43-4.6C517.89,202.35,518.76,207.05,518.68,206Z"/><polygon class="cls-4" points="506.7 215.96 506.85 214.24 505.2 218.5 506.7 215.96"/><path class="cls-4" d="M495.16,216.37c1.41,7.08,4.13-1.34,6.29,1.1l.41,1.62.69-5.78C500.08,214.32,497,218.29,495.16,216.37Z"/><path class="cls-4" d="M488.29,201.24c.51,2.75-1.22,2.44,1.48.8-.15-.3-.2-.48-.29-.7A2.41,2.41,0,0,1,488.29,201.24Z"/><path class="cls-4" d="M489.48,201.34c1.21-.25-.91-2.28,0,0Z"/><path class="cls-4" d="M483.92,203.19l1.49-2.55c-.42-1.62-1.87-1.93-1.39-3.15C482.43,198.93,482.85,200.54,483.92,203.19Z"/><path class="cls-4" d="M482.65,208.46l.78-1.08C483.25,206.7,483,206.46,482.65,208.46Z"/><path class="cls-4" d="M485.09,205.08l-1.66,2.3c.29,1.13.43,3.45.77-.84C484.16,208.66,484.41,206.61,485.09,205.08Z"/><path class="cls-4" d="M486.14,206.12c1,1.51,2.18,2.44.69,5C489.85,210,489.17,205,486.14,206.12Z"/><path class="cls-4" d="M494.91,223.77l1.29,2,.92-2.44C496.66,224.58,494.73,221.55,494.91,223.77Z"/><path class="cls-4" d="M473.72,200c0,1.52.75,4,1,5.95l1.1-1.81C475.12,203.16,473.92,202.26,473.72,200Z"/><path class="cls-4" d="M474.69,206l-1.64,2.69C474.65,208.88,474.88,207.63,474.69,206Z"/><polygon class="cls-4" points="482.76 216.39 485.4 210.79 482.2 216.5 482.76 216.39"/><polygon class="cls-4" points="466.92 200.18 467.73 196.62 466.23 202.02 466.92 200.18"/><path class="cls-4" d="M462.45,201.05c.58-3-1.3-4.86-.62-6.7-1.19.59-2.1,3.15-2.91,5.45C459.85,198.49,460.94,198.75,462.45,201.05Z"/><path class="cls-4" d="M457.53,203.16a19.23,19.23,0,0,0,1.39-3.36A10.41,10.41,0,0,0,457.53,203.16Z"/><path class="cls-4" d="M470,208.07c-.18-.91-.58-3.29-1.63-4.25l.93,4.23Z"/><path class="cls-4" d="M469.32,208.18l0-.13c-.76-.06-1.29-.13-1.52-.17Z"/><path class="cls-4" d="M470.17,208.08H470C470.08,208.49,470.13,208.62,470.17,208.08Z"/><path class="cls-4" d="M477.93,212.78c-.92,2.44-2.95,5.11-.67,8.64C477.85,218.46,476.55,216.45,477.93,212.78Z"/><path class="cls-4" d="M471.32,213.37l1.93.88c-.09-1.13-.52-2.76-.07-4Z"/><polygon class="cls-4" points="470.48 214.78 471.32 213.37 470.61 213.05 470.48 214.78"/><path class="cls-4" d="M461,207a3.37,3.37,0,0,1-2.57,2.47,5.22,5.22,0,0,0,3.32,1.09C461.81,209.18,462.14,206.75,461,207Z"/><path class="cls-4" d="M465.06,207.92c-.05.1-.12.15-.16.25C465,208.53,465.12,208.64,465.06,207.92Z"/><path class="cls-4" d="M448.53,210l.21.76c0-.24,0-.47,0-.74Z"/><path class="cls-4" d="M462,211.31c.86.78,1.28-.29,1.67-1.63a3.65,3.65,0,0,1-1.89.85C461.71,211.14,461.72,211.54,462,211.31Z"/><path class="cls-4" d="M454.89,205.32a14.17,14.17,0,0,0,1.54,2.26C455.94,206.26,455,204.2,454.89,205.32Z"/><path class="cls-4" d="M464.56,207a1.18,1.18,0,0,1,.11-.19C464.35,205.91,464.41,206.35,464.56,207Z"/><path class="cls-4" d="M464.56,207a13.65,13.65,0,0,0-.93,2.68,4.94,4.94,0,0,0,1.27-1.51A7.92,7.92,0,0,1,464.56,207Z"/><path class="cls-4" d="M447.25,237.56c-.11-4,1.78-7.75,3.86-3.62,1.61-3.07-.35-16-2.37-23.18a8,8,0,0,1-1.57,5.77c.79,2.11,4.43,4.8,3.08,8.47-2.32,2.18-2.09-1.28-3.41-3.29,1.32,4.85-2.67,7.37-1.67,14.57l2-2.69C447.26,234.72,446.6,236.57,447.25,237.56Z"/><path class="cls-4" d="M452.3,211l.74-.53c-.92-.64-1.64-2.18-3-5.21a9,9,0,0,0-1.33,4.81l3.8.33Z"/><path class="cls-4" d="M456.47,210.2c-.34,4.34-2.07,6.28-.67,10.87,2.22-.44,1.36-3.69,2.59-5.64-3.56,1.29.9-2.46-1.86-4.74a4.07,4.07,0,0,1,1.89-1.25,10.69,10.69,0,0,1-2-1.86l.1.27h0v.06c.18.53.25.85.06.56,0,0-.05.07-.07.09,0,.59,0,1.12-.07,1.62-1.1-.82-.23-1.09.07-1.62,0-.22,0-.42,0-.65l0-.05L453,210.42C453.84,211,454.8,210.79,456.47,210.2Z"/><path class="cls-4" d="M475.81,230.77a3.39,3.39,0,0,1-.16-1C475.44,230.32,475.37,230.68,475.81,230.77Z"/><path class="cls-4" d="M474.2,228.26c.23-.62.36-2.35,1.23-1.95.81,1.25.1,2.06.22,3.47.45-1.17,1.64-3.18-.09-5.19l-.22.6c-1.53-1.4-3.69-6.67-3.46-7.28A68.44,68.44,0,0,0,474.2,228.26Z"/><path class="cls-4" d="M465.32,220.3l-2.89,2.29,1.74,3.63L464,224C465.73,224.77,465.2,222,465.32,220.3Z"/><polygon class="cls-4" points="448.05 207.88 448.17 203.31 446.82 209.83 448.05 207.88"/><polygon class="cls-4" points="444.15 208.67 444.05 204.71 443.16 207.16 444.15 208.67"/><path class="cls-4" d="M230.27,280.22l-.69,1.24A3.35,3.35,0,0,0,230.27,280.22Z"/><path class="cls-4" d="M236.56,279.59l-.13-1.95C236.3,278.74,236.29,279.54,236.56,279.59Z"/><path class="cls-4" d="M347.82,216.93c-1.66-3.55-3.67-9.11-3.07-4.7l.82,4.28C346.4,215.64,347.14,216.05,347.82,216.93Z"/><path class="cls-4" d="M285.17,249.92l.53,1.25c.13-1.51.25-2.93.36-4.22C285.79,247.85,285.48,248.86,285.17,249.92Z"/><path class="cls-4" d="M286.46,267.85l-2-2.57A9.82,9.82,0,0,0,286.46,267.85Z"/><path class="cls-4" d="M197.72,290.21l-.12,4.53C199.07,294.43,198,292.37,197.72,290.21Z"/><path class="cls-4" d="M404.05,213.11c-1.24-1.6-2.19-2.24-3-2.39C402.61,213.1,404,216.74,404.05,213.11Z"/><path class="cls-4" d="M226.15,234.3a4.37,4.37,0,0,0-.38,2.72A3.51,3.51,0,0,0,226.15,234.3Z"/><path class="cls-4" d="M397.84,211a11.64,11.64,0,0,0,.67,1c.76-.79,1.54-1.44,2.55-1.24C399.93,209,398.7,207.9,397.84,211Z"/><path class="cls-4" d="M90.79,330.09a4.28,4.28,0,0,1-.53-.26C90.59,330.32,90.7,330.28,90.79,330.09Z"/><path class="cls-4" d="M35.3,317.28c.11-.45.58-.82,1-1.22C35.89,316,35.54,316.31,35.3,317.28Z"/><path class="cls-4" d="M428.22,207.82c.81-.34.1-.49,0,0Z"/><path class="cls-4" d="M433.43,224.67a6.38,6.38,0,0,0-.19,2.13A8.37,8.37,0,0,1,433.43,224.67Z"/><path class="cls-4" d="M391.79,238.57s0,0-.07,0C392,239.39,392,239.23,391.79,238.57Z"/><path class="cls-4" d="M429.61,209.7a4.65,4.65,0,0,0-1.16-1.21A4.93,4.93,0,0,0,429.61,209.7Z"/><path class="cls-4" d="M429.3,207.67c.3.17.53.27.75.37C430.11,207.31,430,206.87,429.3,207.67Z"/><path class="cls-4" d="M427.07,208.14a1.79,1.79,0,0,1,1.38.35,1,1,0,0,1-.23-.67A9.12,9.12,0,0,1,427.07,208.14Z"/><path class="cls-4" d="M140.43,289.94a3.19,3.19,0,0,1-.3-.32C140,291.58,140.25,291.19,140.43,289.94Z"/><path class="cls-4" d="M331,263.94s0-.16.07-.21l-.14-.15Z"/><path class="cls-4" d="M328.39,267.46c.67-5.5,1.45-4.91,2.52-3.88l-2.3-12.33Z"/><path class="cls-4" d="M215.67,283.71l2.61,3.54c-1.4,6.71-3.46,4.8-.75,9.91-1.86-13.46,7.49-2.58,5.74-16l1.76,2.63c-.4-.07-.34.72-.74.65,3.55,6,.46-10,4.12-8.59a4,4,0,0,1,1.86,4.4l2.14-3.7c.8.15,1,2.51.15,2.36l3.85-1.64,0,.4a57.19,57.19,0,0,1,1.55-7.11c1.3,1.79-.31,1.5.19,3.13l1.77-3.56c1.39,3.37,0,7-1.58,6.71,4,13.14,1.37-3.63,6.94,3.59l-1.85,2c2.41,7.44,3.66,4.45,6.67,8.88-.89-2.41-6.39-11.33-4.45-15,.82.92,1.78,1.28,2.71-1.61.67,4.79,1.78,3.43,3.33,2.94l.76,6.36c1.46-2.07.88-5.29,1.51-8.27,2,.37,3.06,5.23,4.06,9.3,3.2.6-3.17-7.59.29-9.27,2.88,2.09,4.32-.74,6.88-4.94,2.07,2,.2,3.92,1.08,5.66l.92-5.28c.4.08.48,1.64.52,2.44,1.08-2.14-.72-6.36,1.16-8.36-.33-7.07,5.63,9.66,7.22,1.4.87,1.72.18,3.93.69,6.36,2.9-5.66,2.57-4.17,4.63-11.55l3,3.85c-2.43-4.53-.78-10.47.72-15.36-.94-2.22-1.75-4.17-2.25-5.08l2.89-3.82c.53,1,.46,3.22.25,5.93.16-.55.31-1.09.41-1.59,1.47,2.2,1.31,5.94.9,9.59-.56-1.21-1.12-2.49-1.67-3.78a50.36,50.36,0,0,0,.05,12,3.52,3.52,0,0,1,.87-1.85,8.86,8.86,0,0,0,.07,2.65c.2.65.37-.8.7-2.48l1.62,7-.17-2.83,4.83,3.92c2.21-7.49,3.64-18.31,8.2-21.82-.61,5.34.73,8.52,1.38,14.68-2.09-6.36-3.45,3.21-6.13,2.2,1.4.53,1.46,3.5,1.25,4.55l3.8-6.46c.49,5.05,1.4,3.66,2.82,5.6-2.05-9.85,2.59-7,4.07-10.27.5,3.33.45,6.79-1.88,6.23,3.33,7.22,1.85-12,5-5.95-.54.14-.89-.33-.91,1.39.94-3.11,4.33-1.11,3.92,1.88l-.54.13c3.77.77,11.06-1.17,10.69-9.67.15,1.09.63,10.24.59,12l3.46-29.14c.2,7.33,4.22,24.39,1.65,28.82,1,.94,2.17,2,3.72-.72-.7-1-2.58-10.35-1.84-11.1,3.06,7.85,2,4.16,5.44,10.77-1.05-1.46-1.25-13,.19-12.74,0,1.72,1.28,11.23.89,12.47l2.33-11.55c-.66,2.1.82,9.5,1.92,12.59-.58-2.16,3-.1,3.84-1.3l-1.74-2.45c4.1,1.3,2.32-16.12,6.3-15.92-.25,2.35.23,14.34,2.35,15.55.34-5.81,1.35-28,4.43-32.72l1,3.22,2.32-4c-.87,8.78-3.79,27.36-5.62,34.68,1.72,2.45.79,3.83,3,3.31,1.07,3-.75,4.78-1.38,5l5.3,1.5c-.87-6.68,3.27-7.08,2.56-12.64l-4.91,7.46c-.87-6.66,1.41-19.29,5.18-18.46,1.17,2.59.41,12,.7,14.21.26-2.34,3-4.72,3.52-3.12l-1.21,3.73c2.25,2.33,2.49-9.18,5.5-3,.88.35,3.28,8.39,3.07,4.42-2.05-7.52-4.45-31.13-4-36.95.35.48,5.11,6.92,6.4,10.61,1.91,5.87-.83,14.46.8,19.5a15.78,15.78,0,0,1,.71-4.91c1,1.49.13,5.7,2,4.71-.27-6.81,3.95.24.41-5.82,1.71-2.1,2.11,1.24,4.29.74-1.08-4.33.72-15.1,2.45-17.21a22.12,22.12,0,0,0,.94,5c3.92.28,6.24,3.22,9.85,3,.46,1.62,2.36,3.47,1.85,6.46.42-1.25.71-3.59,1.81-3.84,2.61,5.7-2.4,1.11-.21,8-.17-3.95,2.44-5.68,3.83-8.27-1-6.06-3.75-.88-5.13,1.71-.68-8.41,1.39-17.44,4.88-21.63,2.85-2.33,1.72,5.33,2.15,4.1,5.75,1.05,3.73-15,8.88-9.31,2.25,5.22.85,10.65,1.55,14.49-2.3,2.21-4-3.13-5.65-2.8l2.23,2.39c-.65,1.85-2.18,3.31-3.18,1.83,1.91,4.7,9.59.23,14.24,4.36.65-1.85,1.85-3.81,1.07-5.92l-1.32.85c-1.57-4.23,2.17-6.17.29-8.06,1.64-3.17,3.4-8.09,6.17-5.81l.9,6.08c-.17-1.78-1.95-3.53-2.55-1.62.9-2.78,4.54,8,5.2-.07l-2.11-4.12c1.66-3.19,3.54-9.84,6-8.06-1.44-6-.49.72-2.6-6.24,2,8.71-6,0-3.06,9.11-2.23-8.09-3.15-3.28-5.84-10.13.2,2,1,3.81-1,2.94a13.38,13.38,0,0,1-.3,1.81.66.66,0,0,1-.14-.15c0,.08.08.17.12.24-.06.31-.07.37,0,.07a9.73,9.73,0,0,1,1.2,3c-.65,4.69-3.75,4.76-4.63,7.24-1.22-.88.32-2.36-.46-4.46l-1.31,3.7c-.47-4.46-3.6-7.22-1.06-10l-2.47,0c-1.62-2.4-3.69-3.26-4.77-1.29-1.23-.88-2.56,5.18-1.81,1.59l-3.64,3.06-.12-1.11c-3.84-.28-7.22,8-12.2.28-1.18,1.23-2.39,2.72-4.63,1.62l-.73-3.84c-1.53,1.47-5.25-3.46-5.62.63-2.65-10.27-8.16-1.59-11.21-3.19l.34,5.06c-2-.11-3.79,1.49-6.06,3.75l.55,4.45c-1.78,3.86-5.73-2.67-9-1.91.07-1.72,1-1.36,1.66-.38-5-9.71-7.75,8.1-12.08,1.13-.74,1.72-1.45,1.23-2.2.18.09,0,.15-.12.21-.26a.78.78,0,0,0-.38,0c-.48-.72-1-1.58-1.49-2.24a10.07,10.07,0,0,0,1.29,2.28,5.28,5.28,0,0,0-2.62,2l-.92-4.74c-.07.07-.14.06-.22.15-1.2-1.66-.59,2.35.31,5.91a11.09,11.09,0,0,0-1.08,3c-1.61-7.65-2.46,2.88-4.42-5.26-.29,4.08-4.9,3.56-4.57,12.09-.15-1.11-.51-1.6,0-1.73-1.25-.84-2.5-1.68-3.29.81l-1.12-6-1.66,8.46c-1.91-3.55-2.78-5.64-1.76-10.49-2.9,7.6-2.69,3-5,10.5l-.28-4c-1.1.27-2.3,5.74-3.33,2.56-3.31-7.2-12.42.34-19.62-5.87,2.59,11.44-3.59-4.82-2.79,4.18-.69-2.69-1.77-4.14-1-6.63-2.95,3.07-5.44-3.77-6.78,4.07-.71-2.71.21-4.09-.31-5.68-.2.62-.76,2.5-1.3.9s.21-2.35.58-3.6c-3.29.86-2.6,9.33-1.88,17.28-2.14-3.55-2.92-2.91-3.49,2.43-.91-2.51-2.22-5.1-.27-6.29-1.21-.23-7.59-2.9-6.91,3.46-.56-1.57-1.68-.27-1.89.51-2.66-.06-3-.6-5.45.33l.85.94c0,7.78-1.91,2-3.85,3.17L265,241c-5.45-4.89-1.69,2.91-7.18-2.77l.88,4.72c.92,10.29-4.93-5.48-7.12-1.21l1.34,2.59c-1,3.69-6-13.36-7.68-14.43-.45-.84.32-1.49.68-2.21-4.73-5.49.34,6.29-2.36,8.14-1-3.28-.48-8.64-2.53-9-1.36-2.57-4.16,11.7-7.72,5.63.95,2.5,1.89,5,.82,7.13-1.92,1.21-7-9-7.68-.55a6.27,6.27,0,0,1-.67-2c-1.28,2.33-4.63,4.23-4.93,8.8-2-8.08-4.14-5.72-6.08-3.22s-3.68,5.14-4.85-2.41l-4.79,1.59-.12-1.56c-3.32-.46-3.84,3.34-4.31,7.14-.9-.9-.62-2.4-.69-3.2-5.11-2.26-5.53-1.48-8,6.69l-1.31-4.8c-.26,1.5-2.28-.08-4.69-1.22s-5.23-1.84-6.91,1.5a6.13,6.13,0,0,1,0-2.29c-2,3.42-5.73.66-8.86-.54s-5.52-1.05-4.31,7.93l-2.25,5.17c4.61.26,1.29,7.76,3.77,10.21-1.36,1.44-5.62-4.17-3.82-5.6l.55.8c-1.59-9.3-6.15-1.88-7.71-8a27,27,0,0,1-6.51,1.28c-2.22.2-4.49.29-6.76.31s-4.55.08-6.77.28a28.21,28.21,0,0,0-6.43,1.16l3.42,6.53-2.87.64c-1.31-1.32-3-5-.9-5.46-2.51-3.48-2.09,4.51-1.56,6-2.43-.66-2.86-2.78-2.79-4.71s.62-3.68,0-3.53l-1.44,1.13.68.65c-.23,3.28.83,6.27-1.63,6.91-2-.75-2.48-3.86-3.17-3.87-.2-.49-.49-.63-1,.17l-3.74.89,3.68,4.72c-.4,3.23-3.29,1.12.87,6.41-3.14-4.12-6.68-3.49-9.73-2.13s-5.52,3.65-6.93,2.6c-.15,4.76-2.09,5.79-4.8,6.66,1.2.73,4.66,6.2,2.26,6.66-5.81-12.09-6.65-2.95-13.22-10.2,4.76,4.58-5.11,4.93,2,11.24-2.25.13-2.73-4.21-5.69-6.08-.67,3.47-3.31,4.16-6.33,4.62s-6.4.69-8.32,3.08c.93,1.51,3.25,3.16,3.72,6q-3.75-2.74-7.56-5.45c-.47,1.37,5,8.89-.25,5.14,1.1,1,2.75,2.59,2.46,3.49-7.11-.2-10.73,4.69-14.78,8.8s-8.63,7.52-18,4.69c3.31,1.73,2.72,2.62,1.89,3.44,1.1.17,2.68,3.42,4.27,5.2L32.78,319c3.44,5.71-3.64,3.46-.08,8.72l.44-1.82c3.12,7.07,12.48,11.28,18.21,19-3.56-8,12.3,6.29,7.57-5.45,1.82,1.06,1.38,2.85,3.08,4.33-1.83-3.79-1.5-5.13,1.22-4.92l.45.94c3.83-4.26,8.23-2.54,14.81-4.14l-3.22-3.51c1.45-.3,2.57.72,3.78,1.3-3.07-6.67-3.26,1.93-6.9-5.24,3.63,3.32,5.53,1.92,7.49.72s4-2.21,7.65,1.9c1.68-1.13-3.69-4.1-2-5.23l2.17,2.09-1.8-3.41c1.45-.26,4.14,2.37,5.62,4.4-.43-.06-.33,1.1-.48,1.47,3.39,1.85,3.23-3.7,4.36-3.12l-2.61-.4c1.45-2.72,4.12-4.18,6.54-5.93a15.11,15.11,0,0,0,3.3-3,10.1,10.1,0,0,0,2-4.68l-1.51-1.68c.63-2.83,1.67-2.71,2.86-2.39s2.55.85,4-1.05l.13.54c-.35-2.36.13-3.94,1.31-4.32.32,2.82,4.28,3.46,4.42,6.69.78-2.94.84-4,.51-5.33a46.65,46.65,0,0,1-1.69-7.42l2.31,3c-.66-3.43-1.39-5,.21-6.92-.22,3.67,3.77,4.43,3.84,9.1,3.83,2.61,4.37,0,5-1.95s1.13-3.48,4.5,1.5c-2.28-10.24-6-3.53-5.8-6-2.35-2.62-1.6-7.71.21-7.41.75-.21,2.67,2.51,4.8,5.12s4.45,5.08,6.09,4.29c-.36.1-.08.83-.43.92,2.24,1.91,1.12-4.33,4.26-1-1.39-6.11,2.16-.43-.42-7.92-.86,1-1.72,1.94-2.54,2.94,1-2.63-.52-11.93,4.14-8.9a17.83,17.83,0,0,1-.07,5.23c1.69,1.86,1.16-2.09,2.89-.19,2.46,7.54-3.29,3.1-3,9.45,2.1,2.78,1.54-6.72,3.63,1.67-1.25-5.36-.27-5.36.91-5.1s2.6.84,2.4-3.51l1.41,4.53c.12-.83.16-3.21.89-3.33l.77,6.24c.08-2.8,1.37-2,2.71-1s2.75,2.43,3.22.8c-3.72,1.34-2.62-5.17-5.33-7.93,2.85-7.61,6.57,10.94,11.05,7.13-.5.87-3.48-1.89-3-4.34a10.78,10.78,0,0,1,4.47,4.19c3.23-1.95-1.91-4.54-1.22-7.77,2.81,5.21,1.1-2.76,2.21-5l1.3,4.65c4.89,1.84-1.54-10,3.21-7.39L169,290l1.5-2.18,1,5.42c1.08-4.47,2-3.66,4.44-2.66-1.29-3.18-1.81-8.56.05-9.16,1.94,2.49.34,4.63,2.83,3.34.08,3.08.32,6.91-1.85,2.87.25,1.55.12,3.07.37,4.62,2.11,2.88,3.54-.07,4.47-.34a1.78,1.78,0,0,1-1.26-.85c.75-2.47,1.52-4.95,2.33-7.39a6.74,6.74,0,0,1,.67,4.66c.66-.68.72-3,1.79-3.61.53,3.89,1.45,7.83.25,10l2.7-5c.59,1.61,2.81,4.19,2.63,5.7,2.43,1.85,3.44-8.44,6.73-6a3.53,3.53,0,0,1,.62-2.2c2.74.41,5.81,4.72,7.94-1.1l2.92,6.63c2.13-2-3.85-8.33-.28-11.62,2.48-2.7,2.05,5.73,3.36,7.49.81-3.73,2.18-11.23,5.7-6C217.25,284,216.4,283.06,215.67,283.71Zm29.93-7.53c-.46,1.08-1.21,4.34-2,1.58C243.48,272.19,244.37,274.74,245.6,276.18Zm45.24-17.6c-.25,1.63-1,.93-2-.79C289.32,257.33,290,257.43,290.84,258.58ZM419.36,212.4a1.33,1.33,0,0,0,0,.24C417.82,210.86,418.36,211.57,419.36,212.4Zm3,1.88a3.48,3.48,0,0,0,0-2c-.11,1.23-.74,1.36-1.48,1.07C421.14,214.57,421.57,215.42,422.33,214.28ZM120.17,263l1,.94C120.51,265.77,120.37,264.47,120.17,263Z"/><path class="cls-4" d="M286.33,265.77a17.61,17.61,0,0,1-.58-2.57A3.35,3.35,0,0,0,286.33,265.77Z"/><path class="cls-4" d="M197.75,289.38s-.07,0-.1,0a6.25,6.25,0,0,0,.07.87Z"/><path class="cls-4" d="M382.33,258.49A6,6,0,0,1,381,256.1C381.08,257.28,381.43,258.25,382.33,258.49Z"/><path class="cls-4" d="M436.7,205.08,435,206.45c.86-.3,1.24.73,1.73,1.47C436.6,206.8,436.14,205.2,436.7,205.08Z"/><path class="cls-4" d="M454.2,233.89c.22-.61.55-.1.77-.71l-.2-2.24A1.7,1.7,0,0,0,454.2,233.89Z"/><path class="cls-4" d="M439.42,221c.41,4,1.45,2.59,2.66,1.76-.08,0-.15.06-.23,0C441.86,217.05,440.64,219,439.42,221Z"/><path class="cls-4" d="M442.36,222.56a1.28,1.28,0,0,1,1.16-.17C443.52,220.11,443,221.94,442.36,222.56Z"/><path class="cls-4" d="M425.71,211.34c.67,1,0-5.2.47-3.59C426.49,202.56,422.62,214.28,425.71,211.34Z"/><polygon class="cls-4" points="441.31 234.24 440.54 229.27 440.1 233.34 441.31 234.24"/><path class="cls-4" d="M431.16,231.22l2.1,1.25a2.32,2.32,0,0,1,.42-1.73C432.44,230.64,431,229.74,431.16,231.22Z"/><path class="cls-4" d="M433.68,230.74a1.35,1.35,0,0,0,1.56-.94A2.61,2.61,0,0,0,433.68,230.74Z"/><polygon class="cls-4" points="438.67 235.92 438.01 234.91 436.57 234.64 438.67 235.92"/><path class="cls-4" d="M409.54,231.83l-2.08,1.6c-.09,1.73.59,2.73,1.35,2C409.24,234.18,410,233.45,409.54,231.83Z"/><path class="cls-4" d="M417.17,245a12.81,12.81,0,0,1-1.24-3.72l.39,6.19Z"/><path class="cls-4" d="M410.93,246.93c-.08,1.74-2.77,5.18-.05,4.57C411,249.79,413,248.18,410.93,246.93Z"/><polygon class="cls-4" points="377.48 241.81 378.02 241.68 377.05 231.54 377.48 241.81"/><path class="cls-4" d="M351,268.79c2.8,2.18,0-6.32,2.6-3.51.37-2.46-2.13-2.29-1.72-4.42C350.53,263.54,349.58,262.2,351,268.79Z"/><path class="cls-4" d="M351.83,260.86a12.14,12.14,0,0,0,.64-1.62A5.23,5.23,0,0,0,351.83,260.86Z"/><polygon class="cls-4" points="27.07 316.82 24.43 316.2 27.41 318.21 27.07 316.82"/><path class="cls-4" d="M29.26,324.73l-4.35-4.83,2.87,5.22C27.89,324.66,28.12,323.77,29.26,324.73Z"/><path class="cls-4" d="M251.93,288.49l-.09-1.56c-.48-1.64-.88-1.71-1.68-1.87Z"/><polygon class="cls-4" points="229.15 286.8 229.54 286.88 227.98 281.18 229.15 286.8"/><path class="cls-4" d="M212.19,297c.77.12,1.4-1.32,2.17-1.19C213,297.15,210.79,289.85,212.19,297Z"/><text class="cls-5" transform="translate(9.22 103.76)"><tspan xml:space="preserve">  </tspan><tspan class="cls-6" x="21.14" y="0">A</tspan><tspan class="cls-7" x="67.98" y="0">NDERSON </tspan><tspan class="cls-8" x="305.7" y="0">L</tspan><tspan class="cls-7" x="348.85" y="0">OZA</tspan><tspan class="cls-9" x="443.12" y="0">D</tspan><tspan class="cls-10" x="476.9" y="0">A</tspan></text></g></g></svg>